<?xml version="1.0" encoding="UTF-8" standalone="no"?>
<!DOCTYPE svg PUBLIC "-//W3C//DTD SVG 1.1//EN"
 "http://www.w3.org/Graphics/SVG/1.1/DTD/svg11.dtd">
<!-- Generated by graphviz version 7.0.6 (20230106.0513)
 -->
<!-- Pages: 1 -->
<svg width="493pt" height="566pt"
 viewBox="0.00 0.00 492.86 566.00" xmlns="http://www.w3.org/2000/svg" xmlns:xlink="http://www.w3.org/1999/xlink">
<g id="graph0" class="graph" transform="scale(1 1) rotate(0) translate(4 562)">
<polygon fill="white" stroke="none" points="-4,4 -4,-562 488.86,-562 488.86,4 -4,4"/>
<!-- Request Payment -->
<g id="node1" class="node">
<title>Request Payment</title>
<ellipse fill="none" stroke="black" cx="242.43" cy="-105" rx="74.19" ry="18"/>
<text text-anchor="middle" x="242.43" y="-101.3" font-family="Times New Roman,serif" font-size="14.00">Request Payment</text>
</g>
<!-- Payment Handled -->
<g id="node5" class="node">
<title>Payment Handled</title>
<ellipse fill="none" stroke="black" cx="242.43" cy="-18" rx="74.99" ry="18"/>
<text text-anchor="middle" x="242.43" y="-14.3" font-family="Times New Roman,serif" font-size="14.00">Payment Handled</text>
</g>
<!-- Request Payment&#45;&gt;Payment Handled -->
<g id="edge4" class="edge">
<title>Request Payment&#45;&gt;Payment Handled</title>
<path fill="none" stroke="black" d="M242.43,-86.8C242.43,-75.58 242.43,-60.67 242.43,-47.69"/>
<polygon fill="black" stroke="black" points="245.93,-47.98 242.43,-37.98 238.93,-47.98 245.93,-47.98"/>
<text text-anchor="middle" x="254.93" y="-57.8" font-family="Times New Roman,serif" font-size="14.00">1.00</text>
</g>
<!-- Request For Payment REJECTED by ADMINISTRATION -->
<g id="node2" class="node">
<title>Request For Payment REJECTED by ADMINISTRATION</title>
<ellipse fill="none" stroke="black" cx="242.43" cy="-540" rx="229.36" ry="18"/>
<text text-anchor="middle" x="242.43" y="-536.3" font-family="Times New Roman,serif" font-size="14.00">Request For Payment REJECTED by ADMINISTRATION</text>
</g>
<!-- Request For Payment REJECTED by EMPLOYEE -->
<g id="node7" class="node">
<title>Request For Payment REJECTED by EMPLOYEE</title>
<ellipse fill="none" stroke="black" cx="242.43" cy="-453" rx="198.47" ry="18"/>
<text text-anchor="middle" x="242.43" y="-449.3" font-family="Times New Roman,serif" font-size="14.00">Request For Payment REJECTED by EMPLOYEE</text>
</g>
<!-- Request For Payment REJECTED by ADMINISTRATION&#45;&gt;Request For Payment REJECTED by EMPLOYEE -->
<g id="edge6" class="edge">
<title>Request For Payment REJECTED by ADMINISTRATION&#45;&gt;Request For Payment REJECTED by EMPLOYEE</title>
<path fill="none" stroke="black" d="M242.43,-521.8C242.43,-510.58 242.43,-495.67 242.43,-482.69"/>
<polygon fill="black" stroke="black" points="245.93,-482.98 242.43,-472.98 238.93,-482.98 245.93,-482.98"/>
<text text-anchor="middle" x="254.93" y="-492.8" font-family="Times New Roman,serif" font-size="14.00">1.00</text>
</g>
<!-- Request For Payment SUBMITTED by EMPLOYEE -->
<g id="node3" class="node">
<title>Request For Payment SUBMITTED by EMPLOYEE</title>
<ellipse fill="none" stroke="black" cx="242.43" cy="-366" rx="206.06" ry="18"/>
<text text-anchor="middle" x="242.43" y="-362.3" font-family="Times New Roman,serif" font-size="14.00">Request For Payment SUBMITTED by EMPLOYEE</text>
</g>
<!-- Request For Payment APPROVED by ADMINISTRATION -->
<g id="node6" class="node">
<title>Request For Payment APPROVED by ADMINISTRATION</title>
<ellipse fill="none" stroke="black" cx="242.43" cy="-279" rx="233.16" ry="18"/>
<text text-anchor="middle" x="242.43" y="-275.3" font-family="Times New Roman,serif" font-size="14.00">Request For Payment APPROVED by ADMINISTRATION</text>
</g>
<!-- Request For Payment SUBMITTED by EMPLOYEE&#45;&gt;Request For Payment APPROVED by ADMINISTRATION -->
<g id="edge5" class="edge">
<title>Request For Payment SUBMITTED by EMPLOYEE&#45;&gt;Request For Payment APPROVED by ADMINISTRATION</title>
<path fill="none" stroke="black" d="M242.43,-347.8C242.43,-336.58 242.43,-321.67 242.43,-308.69"/>
<polygon fill="black" stroke="black" points="245.93,-308.98 242.43,-298.98 238.93,-308.98 245.93,-308.98"/>
<text text-anchor="middle" x="254.93" y="-318.8" font-family="Times New Roman,serif" font-size="14.00">1.00</text>
</g>
<!-- Request For Payment FINAL_APPROVED by SUPERVISOR -->
<g id="node4" class="node">
<title>Request For Payment FINAL_APPROVED by SUPERVISOR</title>
<ellipse fill="none" stroke="black" cx="242.43" cy="-192" rx="242.36" ry="18"/>
<text text-anchor="middle" x="242.43" y="-188.3" font-family="Times New Roman,serif" font-size="14.00">Request For Payment FINAL_APPROVED by SUPERVISOR</text>
</g>
<!-- Request For Payment FINAL_APPROVED by SUPERVISOR&#45;&gt;Request Payment -->
<g id="edge1" class="edge">
<title>Request For Payment FINAL_APPROVED by SUPERVISOR&#45;&gt;Request Payment</title>
<path fill="none" stroke="black" d="M242.43,-173.8C242.43,-162.58 242.43,-147.67 242.43,-134.69"/>
<polygon fill="black" stroke="black" points="245.93,-134.98 242.43,-124.98 238.93,-134.98 245.93,-134.98"/>
<text text-anchor="middle" x="254.93" y="-144.8" font-family="Times New Roman,serif" font-size="14.00">1.00</text>
</g>
<!-- Request For Payment APPROVED by ADMINISTRATION&#45;&gt;Request For Payment FINAL_APPROVED by SUPERVISOR -->
<g id="edge3" class="edge">
<title>Request For Payment APPROVED by ADMINISTRATION&#45;&gt;Request For Payment FINAL_APPROVED by SUPERVISOR</title>
<path fill="none" stroke="black" d="M242.43,-260.8C242.43,-249.58 242.43,-234.67 242.43,-221.69"/>
<polygon fill="black" stroke="black" points="245.93,-221.98 242.43,-211.98 238.93,-221.98 245.93,-221.98"/>
<text text-anchor="middle" x="254.93" y="-231.8" font-family="Times New Roman,serif" font-size="14.00">1.00</text>
</g>
<!-- Request For Payment REJECTED by EMPLOYEE&#45;&gt;Request For Payment SUBMITTED by EMPLOYEE -->
<g id="edge2" class="edge">
<title>Request For Payment REJECTED by EMPLOYEE&#45;&gt;Request For Payment SUBMITTED by EMPLOYEE</title>
<path fill="none" stroke="black" d="M242.43,-434.8C242.43,-423.58 242.43,-408.67 242.43,-395.69"/>
<polygon fill="black" stroke="black" points="245.93,-395.98 242.43,-385.98 238.93,-395.98 245.93,-395.98"/>
<text text-anchor="middle" x="254.93" y="-405.8" font-family="Times New Roman,serif" font-size="14.00">1.00</text>
</g>
</g>
</svg>
