<?xml version="1.0" encoding="UTF-8" standalone="no"?>
<!DOCTYPE svg PUBLIC "-//W3C//DTD SVG 1.1//EN"
 "http://www.w3.org/Graphics/SVG/1.1/DTD/svg11.dtd">
<!-- Generated by graphviz version 7.0.6 (20230106.0513)
 -->
<!-- Pages: 1 -->
<svg width="966pt" height="740pt"
 viewBox="0.00 0.00 965.91 740.00" xmlns="http://www.w3.org/2000/svg" xmlns:xlink="http://www.w3.org/1999/xlink">
<g id="graph0" class="graph" transform="scale(1 1) rotate(0) translate(4 736)">
<polygon fill="white" stroke="none" points="-4,4 -4,-736 961.91,-736 961.91,4 -4,4"/>
<!-- Request Payment -->
<g id="node1" class="node">
<title>Request Payment</title>
<ellipse fill="none" stroke="black" cx="242.43" cy="-105" rx="74.19" ry="18"/>
<text text-anchor="middle" x="242.43" y="-101.3" font-family="Times New Roman,serif" font-size="14.00">Request Payment</text>
</g>
<!-- Payment Handled -->
<g id="node5" class="node">
<title>Payment Handled</title>
<ellipse fill="none" stroke="black" cx="242.43" cy="-18" rx="74.99" ry="18"/>
<text text-anchor="middle" x="242.43" y="-14.3" font-family="Times New Roman,serif" font-size="14.00">Payment Handled</text>
</g>
<!-- Request Payment&#45;&gt;Payment Handled -->
<g id="edge5" class="edge">
<title>Request Payment&#45;&gt;Payment Handled</title>
<path fill="none" stroke="black" d="M242.43,-86.8C242.43,-75.58 242.43,-60.67 242.43,-47.69"/>
<polygon fill="black" stroke="black" points="245.93,-47.98 242.43,-37.98 238.93,-47.98 245.93,-47.98"/>
<text text-anchor="middle" x="254.93" y="-57.8" font-family="Times New Roman,serif" font-size="14.00">1.00</text>
</g>
<!-- Request For Payment REJECTED by ADMINISTRATION -->
<g id="node2" class="node">
<title>Request For Payment REJECTED by ADMINISTRATION</title>
<ellipse fill="none" stroke="black" cx="486.43" cy="-714" rx="229.36" ry="18"/>
<text text-anchor="middle" x="486.43" y="-710.3" font-family="Times New Roman,serif" font-size="14.00">Request For Payment REJECTED by ADMINISTRATION</text>
</g>
<!-- xor_0 -->
<g id="node9" class="node">
<title>xor_0</title>
<ellipse fill="none" stroke="black" cx="486.43" cy="-627" rx="32.49" ry="18"/>
<text text-anchor="middle" x="486.43" y="-623.3" font-family="Times New Roman,serif" font-size="14.00">xor_0</text>
</g>
<!-- Request For Payment REJECTED by ADMINISTRATION&#45;&gt;xor_0 -->
<g id="edge9" class="edge">
<title>Request For Payment REJECTED by ADMINISTRATION&#45;&gt;xor_0</title>
<path fill="none" stroke="black" d="M486.43,-695.8C486.43,-684.58 486.43,-669.67 486.43,-656.69"/>
<polygon fill="black" stroke="black" points="489.93,-656.98 486.43,-646.98 482.93,-656.98 489.93,-656.98"/>
<text text-anchor="middle" x="498.93" y="-666.8" font-family="Times New Roman,serif" font-size="14.00">1.00</text>
</g>
<!-- Request For Payment SUBMITTED by EMPLOYEE -->
<g id="node3" class="node">
<title>Request For Payment SUBMITTED by EMPLOYEE</title>
<ellipse fill="none" stroke="black" cx="486.43" cy="-453" rx="206.06" ry="18"/>
<text text-anchor="middle" x="486.43" y="-449.3" font-family="Times New Roman,serif" font-size="14.00">Request For Payment SUBMITTED by EMPLOYEE</text>
</g>
<!-- Request For Payment APPROVED by ADMINISTRATION -->
<g id="node6" class="node">
<title>Request For Payment APPROVED by ADMINISTRATION</title>
<ellipse fill="none" stroke="black" cx="486.43" cy="-366" rx="233.16" ry="18"/>
<text text-anchor="middle" x="486.43" y="-362.3" font-family="Times New Roman,serif" font-size="14.00">Request For Payment APPROVED by ADMINISTRATION</text>
</g>
<!-- Request For Payment SUBMITTED by EMPLOYEE&#45;&gt;Request For Payment APPROVED by ADMINISTRATION -->
<g id="edge6" class="edge">
<title>Request For Payment SUBMITTED by EMPLOYEE&#45;&gt;Request For Payment APPROVED by ADMINISTRATION</title>
<path fill="none" stroke="black" d="M486.43,-434.8C486.43,-423.58 486.43,-408.67 486.43,-395.69"/>
<polygon fill="black" stroke="black" points="489.93,-395.98 486.43,-385.98 482.93,-395.98 489.93,-395.98"/>
<text text-anchor="middle" x="498.93" y="-405.8" font-family="Times New Roman,serif" font-size="14.00">1.00</text>
</g>
<!-- Request For Payment FINAL_APPROVED by SUPERVISOR -->
<g id="node4" class="node">
<title>Request For Payment FINAL_APPROVED by SUPERVISOR</title>
<ellipse fill="none" stroke="black" cx="242.43" cy="-192" rx="242.36" ry="18"/>
<text text-anchor="middle" x="242.43" y="-188.3" font-family="Times New Roman,serif" font-size="14.00">Request For Payment FINAL_APPROVED by SUPERVISOR</text>
</g>
<!-- Request For Payment FINAL_APPROVED by SUPERVISOR&#45;&gt;Request Payment -->
<g id="edge1" class="edge">
<title>Request For Payment FINAL_APPROVED by SUPERVISOR&#45;&gt;Request Payment</title>
<path fill="none" stroke="black" d="M242.43,-173.8C242.43,-162.58 242.43,-147.67 242.43,-134.69"/>
<polygon fill="black" stroke="black" points="245.93,-134.98 242.43,-124.98 238.93,-134.98 245.93,-134.98"/>
<text text-anchor="middle" x="254.93" y="-144.8" font-family="Times New Roman,serif" font-size="14.00">1.00</text>
</g>
<!-- xor_1 -->
<g id="node10" class="node">
<title>xor_1</title>
<ellipse fill="none" stroke="black" cx="486.43" cy="-279" rx="32.49" ry="18"/>
<text text-anchor="middle" x="486.43" y="-275.3" font-family="Times New Roman,serif" font-size="14.00">xor_1</text>
</g>
<!-- Request For Payment APPROVED by ADMINISTRATION&#45;&gt;xor_1 -->
<g id="edge10" class="edge">
<title>Request For Payment APPROVED by ADMINISTRATION&#45;&gt;xor_1</title>
<path fill="none" stroke="black" d="M486.43,-347.8C486.43,-336.58 486.43,-321.67 486.43,-308.69"/>
<polygon fill="black" stroke="black" points="489.93,-308.98 486.43,-298.98 482.93,-308.98 489.93,-308.98"/>
<text text-anchor="middle" x="498.93" y="-318.8" font-family="Times New Roman,serif" font-size="14.00">1.00</text>
</g>
<!-- Request For Payment APPROVED by BUDGET OWNER -->
<g id="node7" class="node">
<title>Request For Payment APPROVED by BUDGET OWNER</title>
<ellipse fill="none" stroke="black" cx="730.43" cy="-192" rx="227.46" ry="18"/>
<text text-anchor="middle" x="730.43" y="-188.3" font-family="Times New Roman,serif" font-size="14.00">Request For Payment APPROVED by BUDGET OWNER</text>
</g>
<!-- Request For Payment REJECTED by EMPLOYEE -->
<g id="node8" class="node">
<title>Request For Payment REJECTED by EMPLOYEE</title>
<ellipse fill="none" stroke="black" cx="711.43" cy="-540" rx="198.47" ry="18"/>
<text text-anchor="middle" x="711.43" y="-536.3" font-family="Times New Roman,serif" font-size="14.00">Request For Payment REJECTED by EMPLOYEE</text>
</g>
<!-- Request For Payment REJECTED by EMPLOYEE&#45;&gt;Request For Payment SUBMITTED by EMPLOYEE -->
<g id="edge2" class="edge">
<title>Request For Payment REJECTED by EMPLOYEE&#45;&gt;Request For Payment SUBMITTED by EMPLOYEE</title>
<path fill="none" stroke="black" d="M666.44,-522C630.57,-508.45 580.17,-489.41 541.82,-474.92"/>
<polygon fill="black" stroke="black" points="543.35,-471.76 532.76,-471.5 540.88,-478.31 543.35,-471.76"/>
<text text-anchor="middle" x="623.93" y="-492.8" font-family="Times New Roman,serif" font-size="14.00">1.00</text>
</g>
<!-- xor_0&#45;&gt;Request For Payment SUBMITTED by EMPLOYEE -->
<g id="edge3" class="edge">
<title>xor_0&#45;&gt;Request For Payment SUBMITTED by EMPLOYEE</title>
<path fill="none" stroke="black" d="M484.15,-608.71C482.47,-594.99 480.32,-575.3 479.43,-558 478.61,-542.02 478.61,-537.98 479.43,-522 480.09,-509.02 481.47,-494.7 482.83,-482.57"/>
<polygon fill="black" stroke="black" points="486.29,-483.13 483.98,-472.79 479.33,-482.32 486.29,-483.13"/>
<text text-anchor="middle" x="491.93" y="-536.3" font-family="Times New Roman,serif" font-size="14.00">1.00</text>
</g>
<!-- xor_0&#45;&gt;Request For Payment REJECTED by EMPLOYEE -->
<g id="edge8" class="edge">
<title>xor_0&#45;&gt;Request For Payment REJECTED by EMPLOYEE</title>
<path fill="none" stroke="black" d="M512.68,-616.08C547.67,-602.87 610.46,-579.14 656.13,-561.89"/>
<polygon fill="black" stroke="black" points="657.23,-565.22 665.34,-558.41 654.75,-558.67 657.23,-565.22"/>
<text text-anchor="middle" x="623.93" y="-579.8" font-family="Times New Roman,serif" font-size="14.00">1.00</text>
</g>
<!-- xor_1&#45;&gt;Request For Payment FINAL_APPROVED by SUPERVISOR -->
<g id="edge4" class="edge">
<title>xor_1&#45;&gt;Request For Payment FINAL_APPROVED by SUPERVISOR</title>
<path fill="none" stroke="black" d="M459.38,-268.58C421.7,-255.45 352.38,-231.3 302.22,-213.83"/>
<polygon fill="black" stroke="black" points="303.53,-210.58 292.94,-210.6 301.23,-217.19 303.53,-210.58"/>
<text text-anchor="middle" x="391.93" y="-231.8" font-family="Times New Roman,serif" font-size="14.00">1.00</text>
</g>
<!-- xor_1&#45;&gt;Request For Payment APPROVED by BUDGET OWNER -->
<g id="edge7" class="edge">
<title>xor_1&#45;&gt;Request For Payment APPROVED by BUDGET OWNER</title>
<path fill="none" stroke="black" d="M513.47,-268.58C551.27,-255.41 620.9,-231.16 671.1,-213.67"/>
<polygon fill="black" stroke="black" points="672.09,-217.03 680.38,-210.43 669.79,-210.42 672.09,-217.03"/>
<text text-anchor="middle" x="634.93" y="-231.8" font-family="Times New Roman,serif" font-size="14.00">1.00</text>
</g>
</g>
</svg>
