<?xml version="1.0" encoding="UTF-8" standalone="no"?>
<!DOCTYPE svg PUBLIC "-//W3C//DTD SVG 1.1//EN"
 "http://www.w3.org/Graphics/SVG/1.1/DTD/svg11.dtd">
<!-- Generated by graphviz version 7.0.6 (20230106.0513)
 -->
<!-- Pages: 1 -->
<svg width="314pt" height="392pt"
 viewBox="0.00 0.00 313.64 392.00" xmlns="http://www.w3.org/2000/svg" xmlns:xlink="http://www.w3.org/1999/xlink">
<g id="graph0" class="graph" transform="scale(1 1) rotate(0) translate(4 388)">
<polygon fill="white" stroke="none" points="-4,4 -4,-388 309.64,-388 309.64,4 -4,4"/>
<!-- Close Application -->
<g id="node1" class="node">
<title>Close Application</title>
<ellipse fill="none" stroke="black" cx="76.04" cy="-18" rx="76.09" ry="18"/>
<text text-anchor="middle" x="76.04" y="-14.3" font-family="Times New Roman,serif" font-size="14.00">Close Application</text>
</g>
<!-- Archive -->
<g id="node2" class="node">
<title>Archive</title>
<ellipse fill="none" stroke="black" cx="118.04" cy="-192" rx="38.99" ry="18"/>
<text text-anchor="middle" x="118.04" y="-188.3" font-family="Times New Roman,serif" font-size="14.00">Archive</text>
</g>
<!-- and_0 -->
<g id="node6" class="node">
<title>and_0</title>
<ellipse fill="none" stroke="black" cx="118.04" cy="-105" rx="33.29" ry="18"/>
<text text-anchor="middle" x="118.04" y="-101.3" font-family="Times New Roman,serif" font-size="14.00">and_0</text>
</g>
<!-- Archive&#45;&gt;and_0 -->
<g id="edge7" class="edge">
<title>Archive&#45;&gt;and_0</title>
<path fill="none" stroke="black" d="M118.04,-173.8C118.04,-162.58 118.04,-147.67 118.04,-134.69"/>
<polygon fill="black" stroke="black" points="121.54,-134.98 118.04,-124.98 114.54,-134.98 121.54,-134.98"/>
<text text-anchor="middle" x="130.54" y="-144.8" font-family="Times New Roman,serif" font-size="14.00">1.00</text>
</g>
<!-- Email -->
<g id="node3" class="node">
<title>Email</title>
<ellipse fill="none" stroke="black" cx="206.04" cy="-192" rx="30.59" ry="18"/>
<text text-anchor="middle" x="206.04" y="-188.3" font-family="Times New Roman,serif" font-size="14.00">Email</text>
</g>
<!-- and_1 -->
<g id="node7" class="node">
<title>and_1</title>
<ellipse fill="none" stroke="black" cx="206.04" cy="-105" rx="33.29" ry="18"/>
<text text-anchor="middle" x="206.04" y="-101.3" font-family="Times New Roman,serif" font-size="14.00">and_1</text>
</g>
<!-- Email&#45;&gt;and_1 -->
<g id="edge8" class="edge">
<title>Email&#45;&gt;and_1</title>
<path fill="none" stroke="black" d="M206.04,-173.8C206.04,-162.58 206.04,-147.67 206.04,-134.69"/>
<polygon fill="black" stroke="black" points="209.54,-134.98 206.04,-124.98 202.54,-134.98 209.54,-134.98"/>
<text text-anchor="middle" x="218.54" y="-144.8" font-family="Times New Roman,serif" font-size="14.00">1.00</text>
</g>
<!-- EVENT 1 START -->
<g id="node4" class="node">
<title>EVENT 1 START</title>
<ellipse fill="none" stroke="black" cx="162.04" cy="-366" rx="79.09" ry="18"/>
<text text-anchor="middle" x="162.04" y="-362.3" font-family="Times New Roman,serif" font-size="14.00">EVENT 1 START</text>
</g>
<!-- and_2 -->
<g id="node8" class="node">
<title>and_2</title>
<ellipse fill="none" stroke="black" cx="162.04" cy="-279" rx="33.29" ry="18"/>
<text text-anchor="middle" x="162.04" y="-275.3" font-family="Times New Roman,serif" font-size="14.00">and_2</text>
</g>
<!-- EVENT 1 START&#45;&gt;and_2 -->
<g id="edge9" class="edge">
<title>EVENT 1 START&#45;&gt;and_2</title>
<path fill="none" stroke="black" d="M162.04,-347.8C162.04,-336.58 162.04,-321.67 162.04,-308.69"/>
<polygon fill="black" stroke="black" points="165.54,-308.98 162.04,-298.98 158.54,-308.98 165.54,-308.98"/>
<text text-anchor="middle" x="174.54" y="-318.8" font-family="Times New Roman,serif" font-size="14.00">1.00</text>
</g>
<!-- EVENT 7 END -->
<g id="node5" class="node">
<title>EVENT 7 END</title>
<ellipse fill="none" stroke="black" cx="238.04" cy="-18" rx="67.69" ry="18"/>
<text text-anchor="middle" x="238.04" y="-14.3" font-family="Times New Roman,serif" font-size="14.00">EVENT 7 END</text>
</g>
<!-- and_0&#45;&gt;Close Application -->
<g id="edge1" class="edge">
<title>and_0&#45;&gt;Close Application</title>
<path fill="none" stroke="black" d="M103.48,-88.56C98.64,-82.78 93.59,-75.92 90.04,-69 86.59,-62.26 83.89,-54.56 81.83,-47.26"/>
<polygon fill="black" stroke="black" points="85.28,-46.62 79.46,-37.77 78.49,-48.32 85.28,-46.62"/>
<text text-anchor="middle" x="102.54" y="-57.8" font-family="Times New Roman,serif" font-size="14.00">1.00</text>
</g>
<!-- and_0&#45;&gt;EVENT 7 END -->
<g id="edge5" class="edge">
<title>and_0&#45;&gt;EVENT 7 END</title>
<path fill="none" stroke="black" d="M121.93,-86.66C125.15,-75.95 130.74,-62.66 140.04,-54 149.61,-45.1 161.59,-38.43 173.85,-33.45"/>
<polygon fill="black" stroke="black" points="175.05,-36.74 183.24,-30.01 172.64,-30.17 175.05,-36.74"/>
<text text-anchor="middle" x="152.54" y="-57.8" font-family="Times New Roman,serif" font-size="14.00">1.00</text>
</g>
<!-- and_1&#45;&gt;Close Application -->
<g id="edge2" class="edge">
<title>and_1&#45;&gt;Close Application</title>
<path fill="none" stroke="black" d="M195.92,-87.74C188.5,-76.94 177.57,-63.12 165.04,-54 155.58,-47.11 144.59,-41.36 133.62,-36.65"/>
<polygon fill="black" stroke="black" points="135.15,-33.49 124.56,-33.01 132.53,-39.99 135.15,-33.49"/>
<text text-anchor="middle" x="193.54" y="-57.8" font-family="Times New Roman,serif" font-size="14.00">1.00</text>
</g>
<!-- and_1&#45;&gt;EVENT 7 END -->
<g id="edge6" class="edge">
<title>and_1&#45;&gt;EVENT 7 END</title>
<path fill="none" stroke="black" d="M212.37,-87.21C216.69,-75.72 222.53,-60.21 227.55,-46.89"/>
<polygon fill="black" stroke="black" points="230.73,-48.35 230.98,-37.76 224.18,-45.88 230.73,-48.35"/>
<text text-anchor="middle" x="235.54" y="-57.8" font-family="Times New Roman,serif" font-size="14.00">1.00</text>
</g>
<!-- and_2&#45;&gt;Archive -->
<g id="edge3" class="edge">
<title>and_2&#45;&gt;Archive</title>
<path fill="none" stroke="black" d="M153.35,-261.21C147.26,-249.45 139,-233.48 132,-219.96"/>
<polygon fill="black" stroke="black" points="135.12,-218.37 127.41,-211.1 128.9,-221.59 135.12,-218.37"/>
<text text-anchor="middle" x="155.54" y="-231.8" font-family="Times New Roman,serif" font-size="14.00">1.00</text>
</g>
<!-- and_2&#45;&gt;Email -->
<g id="edge4" class="edge">
<title>and_2&#45;&gt;Email</title>
<path fill="none" stroke="black" d="M170.74,-261.21C176.82,-249.45 185.09,-233.48 192.09,-219.96"/>
<polygon fill="black" stroke="black" points="195.18,-221.59 196.67,-211.1 188.97,-218.37 195.18,-221.59"/>
<text text-anchor="middle" x="199.54" y="-231.8" font-family="Times New Roman,serif" font-size="14.00">1.00</text>
</g>
</g>
</svg>
