<?xml version="1.0" encoding="UTF-8" standalone="no"?>
<!DOCTYPE svg PUBLIC "-//W3C//DTD SVG 1.1//EN"
 "http://www.w3.org/Graphics/SVG/1.1/DTD/svg11.dtd">
<!-- Generated by graphviz version 7.0.6 (20230106.0513)
 -->
<!-- Pages: 1 -->
<svg width="882pt" height="566pt"
 viewBox="0.00 0.00 881.66 566.00" xmlns="http://www.w3.org/2000/svg" xmlns:xlink="http://www.w3.org/1999/xlink">
<g id="graph0" class="graph" transform="scale(1 1) rotate(0) translate(4 562)">
<polygon fill="white" stroke="none" points="-4,4 -4,-562 877.66,-562 877.66,4 -4,4"/>
<!-- Request For Payment REJECTED by ADMINISTRATION -->
<g id="node1" class="node">
<title>Request For Payment REJECTED by ADMINISTRATION</title>
<ellipse fill="none" stroke="black" cx="229.43" cy="-540" rx="229.36" ry="18"/>
<text text-anchor="middle" x="229.43" y="-536.3" font-family="Times New Roman,serif" font-size="14.00">Request For Payment REJECTED by ADMINISTRATION</text>
</g>
<!-- Request For Payment REJECTED by EMPLOYEE -->
<g id="node2" class="node">
<title>Request For Payment REJECTED by EMPLOYEE</title>
<ellipse fill="none" stroke="black" cx="675.43" cy="-540" rx="198.47" ry="18"/>
<text text-anchor="middle" x="675.43" y="-536.3" font-family="Times New Roman,serif" font-size="14.00">Request For Payment REJECTED by EMPLOYEE</text>
</g>
<!-- Request For Payment SUBMITTED by EMPLOYEE -->
<g id="node3" class="node">
<title>Request For Payment SUBMITTED by EMPLOYEE</title>
<ellipse fill="none" stroke="black" cx="503.43" cy="-453" rx="206.06" ry="18"/>
<text text-anchor="middle" x="503.43" y="-449.3" font-family="Times New Roman,serif" font-size="14.00">Request For Payment SUBMITTED by EMPLOYEE</text>
</g>
<!-- Request For Payment REJECTED by EMPLOYEE&#45;&gt;Request For Payment SUBMITTED by EMPLOYEE -->
<g id="edge1" class="edge">
<title>Request For Payment REJECTED by EMPLOYEE&#45;&gt;Request For Payment SUBMITTED by EMPLOYEE</title>
<path fill="none" stroke="black" d="M640.62,-521.8C614.05,-508.66 577.21,-490.46 548.4,-476.22"/>
<polygon fill="black" stroke="black" points="550.06,-473.14 539.54,-471.85 546.96,-479.41 550.06,-473.14"/>
<text text-anchor="middle" x="612.93" y="-492.8" font-family="Times New Roman,serif" font-size="14.00">1.04</text>
</g>
<!-- Request Payment -->
<g id="node7" class="node">
<title>Request Payment</title>
<ellipse fill="none" stroke="black" cx="704.43" cy="-105" rx="74.19" ry="18"/>
<text text-anchor="middle" x="704.43" y="-101.3" font-family="Times New Roman,serif" font-size="14.00">Request Payment</text>
</g>
<!-- Request For Payment REJECTED by EMPLOYEE&#45;&gt;Request Payment -->
<g id="edge5" class="edge">
<title>Request For Payment REJECTED by EMPLOYEE&#45;&gt;Request Payment</title>
<path fill="none" stroke="black" d="M701.52,-521.71C721.06,-506.47 744.43,-482.32 744.43,-454 744.43,-454 744.43,-454 744.43,-191 744.43,-169.93 734.24,-148.48 724.15,-132.4"/>
<polygon fill="black" stroke="black" points="727.27,-130.77 718.81,-124.39 721.45,-134.65 727.27,-130.77"/>
<text text-anchor="middle" x="758.93" y="-318.8" font-family="Times New Roman,serif" font-size="14.00">&#45;0.35</text>
</g>
<!-- Request For Payment APPROVED by ADMINISTRATION -->
<g id="node4" class="node">
<title>Request For Payment APPROVED by ADMINISTRATION</title>
<ellipse fill="none" stroke="black" cx="483.43" cy="-366" rx="233.16" ry="18"/>
<text text-anchor="middle" x="483.43" y="-362.3" font-family="Times New Roman,serif" font-size="14.00">Request For Payment APPROVED by ADMINISTRATION</text>
</g>
<!-- Request For Payment SUBMITTED by EMPLOYEE&#45;&gt;Request For Payment APPROVED by ADMINISTRATION -->
<g id="edge2" class="edge">
<title>Request For Payment SUBMITTED by EMPLOYEE&#45;&gt;Request For Payment APPROVED by ADMINISTRATION</title>
<path fill="none" stroke="black" d="M499.38,-434.8C496.72,-423.47 493.16,-408.36 490.09,-395.29"/>
<polygon fill="black" stroke="black" points="493.58,-394.87 487.89,-385.94 486.77,-396.48 493.58,-394.87"/>
<text text-anchor="middle" x="507.93" y="-405.8" font-family="Times New Roman,serif" font-size="14.00">1.00</text>
</g>
<!-- Request For Payment APPROVED by BUDGET OWNER -->
<g id="node5" class="node">
<title>Request For Payment APPROVED by BUDGET OWNER</title>
<ellipse fill="none" stroke="black" cx="445.43" cy="-279" rx="227.46" ry="18"/>
<text text-anchor="middle" x="445.43" y="-275.3" font-family="Times New Roman,serif" font-size="14.00">Request For Payment APPROVED by BUDGET OWNER</text>
</g>
<!-- Request For Payment APPROVED by ADMINISTRATION&#45;&gt;Request For Payment APPROVED by BUDGET OWNER -->
<g id="edge3" class="edge">
<title>Request For Payment APPROVED by ADMINISTRATION&#45;&gt;Request For Payment APPROVED by BUDGET OWNER</title>
<path fill="none" stroke="black" d="M475.74,-347.8C470.62,-336.35 463.79,-321.06 457.9,-307.89"/>
<polygon fill="black" stroke="black" points="461.13,-306.55 453.86,-298.85 454.74,-309.41 461.13,-306.55"/>
<text text-anchor="middle" x="479.93" y="-318.8" font-family="Times New Roman,serif" font-size="14.00">1.10</text>
</g>
<!-- Request For Payment APPROVED by ADMINISTRATION&#45;&gt;Request Payment -->
<g id="edge6" class="edge">
<title>Request For Payment APPROVED by ADMINISTRATION&#45;&gt;Request Payment</title>
<path fill="none" stroke="black" d="M594.88,-349.77C627.38,-339.88 659.89,-323.64 681.43,-297 701.09,-272.69 704.29,-181.8 704.6,-134.7"/>
<polygon fill="black" stroke="black" points="708.1,-134.99 704.62,-124.98 701.1,-134.98 708.1,-134.99"/>
<text text-anchor="middle" x="712.93" y="-231.8" font-family="Times New Roman,serif" font-size="14.00">0.71</text>
</g>
<!-- Request For Payment FINAL_APPROVED by SUPERVISOR -->
<g id="node6" class="node">
<title>Request For Payment FINAL_APPROVED by SUPERVISOR</title>
<ellipse fill="none" stroke="black" cx="434.43" cy="-192" rx="242.36" ry="18"/>
<text text-anchor="middle" x="434.43" y="-188.3" font-family="Times New Roman,serif" font-size="14.00">Request For Payment FINAL_APPROVED by SUPERVISOR</text>
</g>
<!-- Request For Payment APPROVED by BUDGET OWNER&#45;&gt;Request For Payment FINAL_APPROVED by SUPERVISOR -->
<g id="edge4" class="edge">
<title>Request For Payment APPROVED by BUDGET OWNER&#45;&gt;Request For Payment FINAL_APPROVED by SUPERVISOR</title>
<path fill="none" stroke="black" d="M443.2,-260.8C441.75,-249.58 439.82,-234.67 438.14,-221.69"/>
<polygon fill="black" stroke="black" points="441.64,-221.44 436.88,-211.97 434.7,-222.33 441.64,-221.44"/>
<text text-anchor="middle" x="453.93" y="-231.8" font-family="Times New Roman,serif" font-size="14.00">1.01</text>
</g>
<!-- Request For Payment FINAL_APPROVED by SUPERVISOR&#45;&gt;Request Payment -->
<g id="edge7" class="edge">
<title>Request For Payment FINAL_APPROVED by SUPERVISOR&#45;&gt;Request Payment</title>
<path fill="none" stroke="black" d="M488.42,-174C535.15,-159.29 602.43,-138.11 649.45,-123.31"/>
<polygon fill="black" stroke="black" points="650.41,-126.67 658.9,-120.33 648.31,-120 650.41,-126.67"/>
<text text-anchor="middle" x="598.93" y="-144.8" font-family="Times New Roman,serif" font-size="14.00">0.46</text>
</g>
<!-- Payment Handled -->
<g id="node8" class="node">
<title>Payment Handled</title>
<ellipse fill="none" stroke="black" cx="704.43" cy="-18" rx="74.99" ry="18"/>
<text text-anchor="middle" x="704.43" y="-14.3" font-family="Times New Roman,serif" font-size="14.00">Payment Handled</text>
</g>
<!-- Request Payment&#45;&gt;Payment Handled -->
<g id="edge8" class="edge">
<title>Request Payment&#45;&gt;Payment Handled</title>
<path fill="none" stroke="black" d="M704.43,-86.8C704.43,-75.58 704.43,-60.67 704.43,-47.69"/>
<polygon fill="black" stroke="black" points="707.93,-47.98 704.43,-37.98 700.93,-47.98 707.93,-47.98"/>
<text text-anchor="middle" x="716.93" y="-57.8" font-family="Times New Roman,serif" font-size="14.00">1.01</text>
</g>
</g>
</svg>
