<?xml version="1.0" encoding="UTF-8" standalone="no"?>
<!DOCTYPE svg PUBLIC "-//W3C//DTD SVG 1.1//EN"
 "http://www.w3.org/Graphics/SVG/1.1/DTD/svg11.dtd">
<!-- Generated by graphviz version 7.0.6 (20230106.0513)
 -->
<!-- Pages: 1 -->
<svg width="342pt" height="218pt"
 viewBox="0.00 0.00 342.29 218.00" xmlns="http://www.w3.org/2000/svg" xmlns:xlink="http://www.w3.org/1999/xlink">
<g id="graph0" class="graph" transform="scale(1 1) rotate(0) translate(4 214)">
<polygon fill="white" stroke="none" points="-4,4 -4,-214 338.29,-214 338.29,4 -4,4"/>
<!-- EVENT 1 START -->
<g id="node1" class="node">
<title>EVENT 1 START</title>
<ellipse fill="none" stroke="black" cx="79.29" cy="-192" rx="79.09" ry="18"/>
<text text-anchor="middle" x="79.29" y="-188.3" font-family="Times New Roman,serif" font-size="14.00">EVENT 1 START</text>
</g>
<!-- Email -->
<g id="node2" class="node">
<title>Email</title>
<ellipse fill="none" stroke="black" cx="207.29" cy="-192" rx="30.59" ry="18"/>
<text text-anchor="middle" x="207.29" y="-188.3" font-family="Times New Roman,serif" font-size="14.00">Email</text>
</g>
<!-- Close Application -->
<g id="node4" class="node">
<title>Close Application</title>
<ellipse fill="none" stroke="black" cx="251.29" cy="-105" rx="76.09" ry="18"/>
<text text-anchor="middle" x="251.29" y="-101.3" font-family="Times New Roman,serif" font-size="14.00">Close Application</text>
</g>
<!-- Email&#45;&gt;Close Application -->
<g id="edge1" class="edge">
<title>Email&#45;&gt;Close Application</title>
<path fill="none" stroke="black" d="M215.78,-174.61C221.87,-162.85 230.21,-146.73 237.28,-133.07"/>
<polygon fill="black" stroke="black" points="240.2,-135.05 241.69,-124.56 233.98,-131.83 240.2,-135.05"/>
<text text-anchor="middle" x="244.79" y="-144.8" font-family="Times New Roman,serif" font-size="14.00">1.00</text>
</g>
<!-- Archive -->
<g id="node3" class="node">
<title>Archive</title>
<ellipse fill="none" stroke="black" cx="295.29" cy="-192" rx="38.99" ry="18"/>
<text text-anchor="middle" x="295.29" y="-188.3" font-family="Times New Roman,serif" font-size="14.00">Archive</text>
</g>
<!-- Archive&#45;&gt;Close Application -->
<g id="edge2" class="edge">
<title>Archive&#45;&gt;Close Application</title>
<path fill="none" stroke="black" d="M286.6,-174.21C280.59,-162.6 272.46,-146.9 265.52,-133.49"/>
<polygon fill="black" stroke="black" points="268.67,-131.96 260.97,-124.69 262.45,-135.18 268.67,-131.96"/>
<text text-anchor="middle" x="287.79" y="-144.8" font-family="Times New Roman,serif" font-size="14.00">1.00</text>
</g>
<!-- EVENT 7 END -->
<g id="node5" class="node">
<title>EVENT 7 END</title>
<ellipse fill="none" stroke="black" cx="251.29" cy="-18" rx="67.69" ry="18"/>
<text text-anchor="middle" x="251.29" y="-14.3" font-family="Times New Roman,serif" font-size="14.00">EVENT 7 END</text>
</g>
<!-- Close Application&#45;&gt;EVENT 7 END -->
<g id="edge3" class="edge">
<title>Close Application&#45;&gt;EVENT 7 END</title>
<path fill="none" stroke="black" d="M251.29,-86.8C251.29,-75.58 251.29,-60.67 251.29,-47.69"/>
<polygon fill="black" stroke="black" points="254.79,-47.98 251.29,-37.98 247.79,-47.98 254.79,-47.98"/>
<text text-anchor="middle" x="263.79" y="-57.8" font-family="Times New Roman,serif" font-size="14.00">1.00</text>
</g>
</g>
</svg>
